# xmcd
#
# Track frame offsets: 
#        150
#        23272
#        41170
#        79036
#        93802
#        118472
#        131410
#        148795
#        192233
#        218744
#        246178
#        258697
#        266684
#        312518
#
# Disc length: 4516 seconds
#
# Revision: 0
# Processed by: cddbd v1.5.1PL2 Copyright (c) Steve Scherf et al.
# Submitted via: ExactAudioCopy v0.95b4
#
DISCID=ca11a20e
DTITLE=People's Christian Fellowship Choir - Praise Comes First
DYEAR=2004
DGENRE=Gospel
TTITLE0=01 This is my Desire
TTITLE1=02 How Great Thou Art
TTITLE2=03 Olam
TTITLE3=04 It's Over
TTITLE4=05 African Medley
TTITLE5=06 Let It Be
TTITLE6=07 Let the Praises Go First
TTITLE7=08 Once for All
TTITLE8=09 Holy Is The Lord
TTITLE9=10 The Word
TTITLE10=11 Speak To Me
TTITLE11=12 Musical Interlude
TTITLE12=13 New Things Now
TTITLE13=14 This Is Your House
EXTD=
EXTT0=
EXTT1=
EXTT2=
EXTT3=
EXTT4=
EXTT5=
EXTT6=
EXTT7=
EXTT8=
EXTT9=
EXTT10=
EXTT11=
EXTT12=
EXTT13=
PLAYORDER=
